<mxfile host="app.diagrams.net" modified="2024-03-28T11:23:13.764Z" agent="Mozilla/5.0 (Windows NT 10.0; Win64; x64) AppleWebKit/537.36 (KHTML, like Gecko) Chrome/123.0.0.0 Safari/537.36" version="23.1.5" etag="-w-VR7TGGsnaJIKWQulr" type="github">
  <diagram name="Page-1" id="-Fpy69qbIxZFvczz6yx1">
    <mxGraphModel>
      <root>
        <mxCell id="0" />
        <mxCell id="1" parent="0" />
      </root>
    </mxGraphModel>
  </diagram>
</mxfile>
